{
  "source": "C:\\Users\\Peter\\Desktop\\stuff\\MIUN\\quantitative_research\\video_compression\\videos\\BVI-HD\\BVI-HD_CDVL_videos\\ORIG\\BridgeRiver_1920x1080_30fps.mp4",
  "output": "C:\\Users\\Peter\\Desktop\\stuff\\MIUN\\quantitative_research\\video_compression\\compressed_videos\\BVI-HD\\h264\\4\\BridgeRiver_1920x1080_30fps_h264.mp4",
  "codec": "h264",
  "ok": "Input #0, mov,mp4,m4a,3gp,3g2,mj2, from 'C:\\Users\\Peter\\Desktop\\stuff\\MIUN\\quantitative_research\\video_compression\\videos\\BVI-HD\\BVI-HD_CDVL_videos\\ORIG\\BridgeRiver_1920x1080_30fps.mp4':\n  Metadata:\n    major_brand     : isom\n    minor_version   : 512\n    compatible_brands: isomiso2avc1mp41\n    encoder         : Lavf54.28.101\n  Duration: 00:00:05.00, start: 0.000000, bitrate: 274913 kb/s\n  Stream #0:0[0x1](und): Video: h264 (High 4:4:4 Predictive) (avc1 / 0x31637661), yuv420p(progressive), 1920x1080, 274910 kb/s, 30 fps, 30 tbr, 30 tbn (default)\n    Metadata:\n      handler_name    : VideoHandler\n      vendor_id       : [0][0][0][0]\n[out#0/mp4 @ 00000286062f9a40] Codec AVOption b:a (set bitrate (in bits/s)) has not been used for any stream. The most likely reason is either wrong type (e.g. a video option with no video streams) or that it is a private option of some decoder which was not actually used for any stream.\nStream mapping:\n  Stream #0:0 -> #0:0 (h264 (native) -> h264 (libx264))\nPress [q] to stop, [?] for help\n[libx264 @ 00000286070675c0] using cpu capabilities: MMX2 SSE2Fast SSSE3 SSE4.2 AVX FMA3 BMI2 AVX2\n[libx264 @ 00000286070675c0] profile High, level 5.0, 4:2:0, 8-bit\n[libx264 @ 00000286070675c0] 264 - core 165 r3222 b35605a - H.264/MPEG-4 AVC codec - Copyleft 2003-2025 - http://www.videolan.org/x264.html - options: cabac=1 ref=5 deblock=1:0:0 analyse=0x3:0x113 me=hex subme=8 psy=1 psy_rd=1.00:0.00 mixed_ref=1 me_range=16 chroma_me=1 trellis=2 8x8dct=1 cqm=0 deadzone=21,11 fast_pskip=1 chroma_qp_offset=-2 threads=18 lookahead_threads=3 sliced_threads=0 nr=0 decimate=1 interlaced=0 bluray_compat=0 constrained_intra=0 bframes=3 b_pyramid=2 b_adapt=1 b_bias=0 direct=3 weightb=1 open_gop=0 weightp=2 keyint=250 keyint_min=25 scenecut=40 intra_refresh=0 rc_lookahead=50 rc=cbr mbtree=1 bitrate=4000 ratetol=1.0 qcomp=0.60 qpmin=0 qpmax=69 qpstep=4 vbv_maxrate=4000 vbv_bufsize=4000 nal_hrd=none filler=0 ip_ratio=1.40 aq=1:1.00\nOutput #0, mp4, to 'C:\\Users\\Peter\\Desktop\\stuff\\MIUN\\quantitative_research\\video_compression\\compressed_videos\\BVI-HD\\h264\\4\\BridgeRiver_1920x1080_30fps_h264.mp4':\n  Metadata:\n    major_brand     : isom\n    minor_version   : 512\n    compatible_brands: isomiso2avc1mp41\n    encoder         : Lavf62.3.100\n  Stream #0:0(und): Video: h264 (avc1 / 0x31637661), yuv420p(tv, progressive), 1920x1080, q=2-31, 4000 kb/s, 30 fps, 15360 tbn (default)\n    Metadata:\n      encoder         : Lavc62.11.100 libx264\n      handler_name    : VideoHandler\n      vendor_id       : [0][0][0][0]\n    Side data:\n      cpb: bitrate max/min/avg: 4000000/0/4000000 buffer size: 4000000 vbv_delay: N/A\nframe=    0 fps=0.0 q=0.0 size=       0KiB time=N/A bitrate=N/A speed=N/A elapsed=0:00:00.53    \nframe=    0 fps=0.0 q=0.0 size=       0KiB time=N/A bitrate=N/A speed=N/A elapsed=0:00:01.10    \nframe=    0 fps=0.0 q=0.0 size=       0KiB time=N/A bitrate=N/A speed=N/A elapsed=0:00:01.65    \nframe=    5 fps=2.3 q=39.0 size=       0KiB time=00:00:00.03 bitrate=  11.5kbits/s speed=0.0151x elapsed=0:00:02.20    \nframe=   29 fps= 11 q=38.0 size=     256KiB time=00:00:00.76 bitrate=2735.9kbits/s speed=0.278x elapsed=0:00:02.75    \nframe=   52 fps= 15 q=39.0 size=     512KiB time=00:00:01.50 bitrate=2796.5kbits/s speed=0.445x elapsed=0:00:03.37    \nframe=   77 fps= 19 q=39.0 size=    1024KiB time=00:00:02.50 bitrate=3355.6kbits/s speed=0.633x elapsed=0:00:03.95    \nframe=  111 fps= 25 q=39.0 size=    1536KiB time=00:00:03.56 bitrate=3528.0kbits/s speed=0.796x elapsed=0:00:04.48    \nframe=  133 fps= 26 q=39.0 size=    2048KiB time=00:00:04.36 bitrate=3842.2kbits/s speed=0.863x elapsed=0:00:05.06    \n[mp4 @ 00000286063014c0] Starting second pass: moving the moov atom to the beginning of the file\n[out#0/mp4 @ 00000286062f9a40] video:2395KiB audio:0KiB subtitle:0KiB other streams:0KiB global headers:0KiB muxing overhead: 0.109705%\nframe=  150 fps= 28 q=-1.0 Lsize=    2398KiB time=00:00:04.93 bitrate=3982.1kbits/s speed=0.936x elapsed=0:00:05.27    \n[libx264 @ 00000286070675c0] frame I:1     Avg QP:36.35  size: 71576\n[libx264 @ 00000286070675c0] frame P:38    Avg QP:38.25  size: 24989\n[libx264 @ 00000286070675c0] frame B:111   Avg QP:41.58  size: 12892\n[libx264 @ 00000286070675c0] consecutive B-frames:  1.3%  0.0%  0.0% 98.7%\n[libx264 @ 00000286070675c0] mb I  I16..4: 22.5% 69.9%  7.6%\n[libx264 @ 00000286070675c0] mb P  I16..4:  0.6%  7.2%  0.3%  P16..4: 20.0%  8.0%  4.0%  0.0%  0.0%    skip:59.9%\n[libx264 @ 00000286070675c0] mb B  I16..4:  0.0%  1.0%  0.0%  B16..8: 18.6%  4.6%  1.1%  direct: 3.9%  skip:70.8%  L0:41.7% L1:48.8% BI: 9.5%\n[libx264 @ 00000286070675c0] 8x8 transform intra:87.0% inter:72.6%\n[libx264 @ 00000286070675c0] direct mvs  spatial:91.0% temporal:9.0%\n[libx264 @ 00000286070675c0] coded y,uvDC,uvAC intra: 63.8% 11.3% 1.3% inter: 12.5% 0.5% 0.0%\n[libx264 @ 00000286070675c0] i16 v,h,dc,p: 18% 43%  9% 30%\n[libx264 @ 00000286070675c0] i8 v,h,dc,ddl,ddr,vr,hd,vl,hu:  5%  8%  9%  7% 18%  9% 24%  6% 14%\n[libx264 @ 00000286070675c0] i4 v,h,dc,ddl,ddr,vr,hd,vl,hu:  3%  8%  5%  8% 15%  9% 22%  7% 23%\n[libx264 @ 00000286070675c0] i8c dc,h,v,p: 92%  7%  1%  0%\n[libx264 @ 00000286070675c0] Weighted P-Frames: Y:0.0% UV:0.0%\n[libx264 @ 00000286070675c0] ref P L0: 50.1%  6.8% 21.4% 10.5% 11.2%\n[libx264 @ 00000286070675c0] ref B L0: 80.6% 11.3%  5.5%  2.7%\n[libx264 @ 00000286070675c0] ref B L1: 96.5%  3.5%\n[libx264 @ 00000286070675c0] kb/s:3923.49\n",
  "seconds": 5.6203882694244385,
  "probe_out": {}
}